{"title":"Nature.Fellowship.Of.The.Whales.2009.DVDRip.XviD-SPRiNTER","uid":5438677,"size":768198929,"categoryP":"video","categoryS":"movies","magnet":"?xt=urn:btih:7da7a33e32580227d8b6631010aa6d90946e533f&amp;dn=Nature.Fellowship.Of.The.Whales.2009.DVDRip.XviD-SPRiNTER&amp;tr=udp%3A%2F%2Ftracker.openbittorrent.com%3A80&amp;tr=udp%3A%2F%2Fopen.demonii.com%3A1337&amp;tr=udp%3A%2F%2Ftracker.coppersurfer.tk%3A6969&amp;tr=udp%3A%2F%2Fexodus.desync.com%3A6969","seeders":0,"leechers":2,"uploader":"TvTeam","files":56,"time":1268815241,"description":" &lt;a href=&quot;http://www.torrentday.com&quot; rel=&quot;nofollow&quot; target=&quot;_NEW&quot;&gt;http://www.torrentday.com&lt;/a&gt; - Your Key To The Scene.\n\n &lt;a href=&quot;\nhttp://www.torrentday.com&quot; rel=&quot;nofollow&quot; target=&quot;_NEW&quot;&gt;\nhttp://www.torrentday.com&lt;/a&gt; :  Clean RAR Scene Releases!\n\n\nEnjoy =)\n\n...................................NFO:....................................\n\n.SPRiNTER proudly presents...\n\n\n\nNature.Fellowship.Of.The.Whales.2009.DVDRip.XviD-SPRiNTER &lt;a href=&quot;\nhttp://www.amazon.com/Nature-Fellowship-F-Murray-Abraham/dp/B002YOJELQ&quot; rel=&quot;nofollow&quot; target=&quot;_NEW&quot;&gt;\nhttp://www.amazon.com/Nature-Fellowship-F-Murray-Abraham/dp/B002YOJELQ&lt;/a&gt;\nDate: 2010.03\n\n\nDirector: WNET- Nature\nGenre: Documentary\n\nPlot:\nIn Hawaii, where new land is born as volcanic rock, another birth takes place. A baby humpback\nenters the world and joins the 3,000 or more whales that congregate in the warm waters off Hawaii\neach winter to mate and give birth. This is the story of her first year of life. Over twelve months\nshe will learn many skills from her mother, and eventually they will make the several-thousand-mile\njourney together to Alaska's southeast coast.\n\n\nCast:\nF. Murray Abraham \n\n\nRelease notes:\nEnjoy!\n\nStats:\nFormat                           : AVI\nFormat/Info                      : Audio Video Interleave\nFile size                        : 697 MiB\nDuration                         : 53mn 10s\nOverall bit rate                 : 1 831 Kbps\nWriting application              : VirtualDubMod 1.5.10.2 (build 2540/release)\nWriting library                  : VirtualDubMod build 2540/release\n\nVideo\nID                               : 0\nFormat                           : MPEG-4 Visual\nFormat profile                   : AdvancedSimple@L5\nFormat settings, BVOP            : Yes\nFormat settings, QPel            : No\nFormat settings, GMC             : No warppoints\nFormat settings, Matrix          : Default (H.263)\nCodec ID                         : XVID\nCodec ID/Hint                    : XviD\nDuration                         : 53mn 10s\nBit rate                         : 1 630 Kbps\nWidth                            : 624 pixels\nHeight                           : 352 pixels\nDisplay aspect ratio             : 16:9\nFrame rate                       : 23.976 fps\nResolution                       : 24 bits\nColorimetry                      : 4:2:0\nScan type                        : Progressive\nBits/(Pixel*Frame)               : 0.309\nStream size                      : 620 MiB (89%)\nWriting library                  : XviD 1.2.1 (UTC 2008-12-04)\n\nAudio\nID                               : 1\nFormat                           : AC-3\nFormat/Info                      : Audio Coding 3\nCodec ID                         : 2000\nDuration                         : 53mn 10s\nBit rate mode                    : Constant\nBit rate                         : 192 Kbps\nChannel(s)                       : 2 channels\nChannel positions                : L R\nSampling rate                    : 48.0 KHz\nStream size                      : 73.0 MiB (10%)\nAlignment                        : Split accross interleaves\nInterleave, duration             : 42 ms (1.00 video frame)\nInterleave, preload duration     : 500 ms","torrent":{"xt":"urn:btih:7da7a33e32580227d8b6631010aa6d90946e533f","amp;dn":"Nature.Fellowship.Of.The.Whales.2009.DVDRip.XviD-SPRiNTER","amp;tr":["udp%3A%2F%2Ftracker.openbittorrent.com%3A80","udp%3A%2F%2Fopen.demonii.com%3A1337","udp%3A%2F%2Ftracker.coppersurfer.tk%3A6969","udp%3A%2F%2Fexodus.desync.com%3A6969"],"infoHash":"7da7a33e32580227d8b6631010aa6d90946e533f","infoHashBuffer":{"type":"Buffer","data":[125,167,163,62,50,88,2,39,216,182,99,16,16,170,109,144,148,110,83,63]},"announce":[],"urlList":[]}}